<?xml version="1.0" encoding="UTF-8" standalone="no"?><svg xmlns="http://www.w3.org/2000/svg" xmlns:xlink="http://www.w3.org/1999/xlink" contentStyleType="text/css" height="1007px" preserveAspectRatio="none" style="width:1281px;height:1007px;background:#FFFFFF;" version="1.1" viewBox="0 0 1281 1007" width="1281px" zoomAndPan="magnify"><defs/><g><rect fill="none" height="46.5625" style="stroke:none;stroke-width:1.0;" width="224" x="1044" y="10"/><text fill="#888888" font-family="sans-serif" font-size="10" lengthAdjust="spacing" textLength="42" x="1226" y="19.2822">Fast api</text><text fill="#888888" font-family="sans-serif" font-size="10" lengthAdjust="spacing" textLength="224" x="1044" y="30.9229">&#128259; コードを書くとSwagger UIが自動生成される</text><text fill="#888888" font-family="sans-serif" font-size="10" lengthAdjust="spacing" textLength="43" x="1225" y="42.5635">✅ 型安全</text><text fill="#888888" font-family="sans-serif" font-size="10" lengthAdjust="spacing" textLength="33" x="1235" y="54.2041">&#128168; 高速</text><rect fill="none" height="26.2969" id="_title" style="stroke:none;stroke-width:1.0;" width="228" x="525" y="62.5625"/><text fill="#000000" font-family="sans-serif" font-size="14" font-weight="bold" lengthAdjust="spacing" textLength="218" x="530" y="80.5576">結論、Python Fast apiがよき</text><rect fill="#F1F1F1" height="36.2969" rx="12.5" ry="12.5" style="stroke:#181818;stroke-width:1.5;" width="174" x="10" y="189.3047"/><text fill="#000000" font-family="sans-serif" font-size="14" lengthAdjust="spacing" textLength="154" x="20" y="212.2998">TyepScript 動的型付け</text><rect fill="#F1F1F1" height="36.2969" rx="12.5" ry="12.5" style="stroke:#181818;stroke-width:1.5;" width="174" x="234" y="104.8594"/><text fill="#000000" font-family="sans-serif" font-size="14" lengthAdjust="spacing" textLength="154" x="244" y="127.8545">シングルスレッドの性質</text><path d="M184,207.4531 L194,207.4531 C209,207.4531 209,123.0078 224,123.0078 L234,123.0078 " fill="none" style="stroke:#181818;stroke-width:1.0;"/><rect fill="#F1F1F1" height="36.2969" rx="12.5" ry="12.5" style="stroke:#181818;stroke-width:1.5;" width="104" x="234" y="217.4531"/><text fill="#000000" font-family="sans-serif" font-size="14" lengthAdjust="spacing" textLength="84" x="244" y="240.4482">ユースケース</text><rect fill="#F1F1F1" height="36.2969" rx="12.5" ry="12.5" style="stroke:#181818;stroke-width:1.5;" width="881" x="388" y="161.1563"/><text fill="#000000" font-family="sans-serif" font-size="14" lengthAdjust="spacing" textLength="861" x="398" y="184.1514">バグのない、セキュアでメンテナンスが容易なWebベースのソリューションのためにJavaScriptでのフルスタック開発が必要となる場合</text><path d="M338,235.6016 L348,235.6016 C363,235.6016 363,179.3047 378,179.3047 L388,179.3047 " fill="none" style="stroke:#181818;stroke-width:1.0;"/><rect fill="#F1F1F1" height="36.2969" rx="12.5" ry="12.5" style="stroke:#181818;stroke-width:1.5;" width="417" x="388" y="217.4531"/><text fill="#000000" font-family="sans-serif" font-size="14" lengthAdjust="spacing" textLength="397" x="398" y="240.4482">Webベースのソリューションの開発コストを大幅に削減したい</text><path d="M338,235.6016 L348,235.6016 C363,235.6016 363,235.6016 378,235.6016 L388,235.6016 " fill="none" style="stroke:#181818;stroke-width:1.0;"/><rect fill="#F1F1F1" height="36.2969" rx="12.5" ry="12.5" style="stroke:#181818;stroke-width:1.5;" width="552" x="388" y="273.75"/><text fill="#000000" font-family="sans-serif" font-size="14" lengthAdjust="spacing" textLength="532" x="398" y="296.7451">多数のユーザーからのリクエストに対応するプログラムを作成しようとしている場合</text><path d="M338,235.6016 L348,235.6016 C363,235.6016 363,291.8984 378,291.8984 L388,291.8984 " fill="none" style="stroke:#181818;stroke-width:1.0;"/><path d="M184,207.4531 L194,207.4531 C209,207.4531 209,235.6016 224,235.6016 L234,235.6016 " fill="none" style="stroke:#181818;stroke-width:1.0;"/><rect fill="#F1F1F1" height="36.2969" rx="12.5" ry="12.5" style="stroke:#181818;stroke-width:1.5;" width="116" x="10" y="386.3438"/><text fill="#000000" font-family="sans-serif" font-size="14" lengthAdjust="spacing" textLength="96" x="20" y="409.3389">GO 動的型付け</text><rect fill="#F1F1F1" height="36.2969" rx="12.5" ry="12.5" style="stroke:#181818;stroke-width:1.5;" width="468" x="176" y="330.0469"/><text fill="#000000" font-family="sans-serif" font-size="14" lengthAdjust="spacing" textLength="448" x="186" y="353.042">クリーンアーキテクチャとの相性良い（フレームワークに依存しない）</text><path d="M126,404.4922 L136,404.4922 C151,404.4922 151,348.1953 166,348.1953 L176,348.1953 " fill="none" style="stroke:#181818;stroke-width:1.0;"/><rect fill="#F1F1F1" height="36.2969" rx="12.5" ry="12.5" style="stroke:#181818;stroke-width:1.5;" width="356" x="176" y="386.3438"/><text fill="#000000" font-family="sans-serif" font-size="14" lengthAdjust="spacing" textLength="336" x="186" y="409.3389">フレームワークに依存しないクリーンアーキテクチャ</text><path d="M126,404.4922 L136,404.4922 C151,404.4922 151,404.4922 166,404.4922 L176,404.4922 " fill="none" style="stroke:#181818;stroke-width:1.0;"/><rect fill="#F1F1F1" height="36.2969" rx="12.5" ry="12.5" style="stroke:#181818;stroke-width:1.5;" width="524" x="176" y="442.6406"/><text fill="#000000" font-family="sans-serif" font-size="14" lengthAdjust="spacing" textLength="504" x="186" y="465.6357">軽量で保守しやすく（コーディングの差が起きにくい）高速なアプリケーション</text><path d="M126,404.4922 L136,404.4922 C151,404.4922 151,460.7891 166,460.7891 L176,460.7891 " fill="none" style="stroke:#181818;stroke-width:1.0;"/><rect fill="#F1F1F1" height="36.2969" rx="12.5" ry="12.5" style="stroke:#181818;stroke-width:1.5;" width="145" x="10" y="639.6797"/><text fill="#000000" font-family="sans-serif" font-size="14" lengthAdjust="spacing" textLength="125" x="20" y="662.6748">Python 静的型付け</text><rect fill="#F1F1F1" height="36.2969" rx="12.5" ry="12.5" style="stroke:#181818;stroke-width:1.5;" width="76" x="205" y="555.2344"/><text fill="#000000" font-family="sans-serif" font-size="14" lengthAdjust="spacing" textLength="56" x="215" y="578.2295">メリット</text><rect fill="#F1F1F1" height="36.2969" rx="12.5" ry="12.5" style="stroke:#181818;stroke-width:1.5;" width="566" x="331" y="498.9375"/><text fill="#000000" font-family="sans-serif" font-size="14" lengthAdjust="spacing" textLength="546" x="341" y="521.9326">汎用のプログラム言語、柔軟で、豊富なライブラリーがあるため、幅広い分野で使える</text><path d="M281,573.3828 L291,573.3828 C306,573.3828 306,517.0859 321,517.0859 L331,517.0859 " fill="none" style="stroke:#181818;stroke-width:1.0;"/><rect fill="#F1F1F1" height="36.2969" rx="12.5" ry="12.5" style="stroke:#181818;stroke-width:1.5;" width="228" x="331" y="555.2344"/><text fill="#000000" font-family="sans-serif" font-size="14" lengthAdjust="spacing" textLength="208" x="341" y="578.2295">aiに活用できる（CIでカバーか）</text><path d="M281,573.3828 L291,573.3828 C306,573.3828 306,573.3828 321,573.3828 L331,573.3828 " fill="none" style="stroke:#181818;stroke-width:1.0;"/><rect fill="#F1F1F1" height="36.2969" rx="12.5" ry="12.5" style="stroke:#181818;stroke-width:1.5;" width="160" x="331" y="611.5313"/><text fill="#000000" font-family="sans-serif" font-size="14" lengthAdjust="spacing" textLength="140" x="341" y="634.5264">モチベーションアップ</text><path d="M281,573.3828 L291,573.3828 C306,573.3828 306,629.6797 321,629.6797 L331,629.6797 " fill="none" style="stroke:#181818;stroke-width:1.0;"/><path d="M155,657.8281 L165,657.8281 C180,657.8281 180,573.3828 195,573.3828 L205,573.3828 " fill="none" style="stroke:#181818;stroke-width:1.0;"/><rect fill="#F1F1F1" height="36.2969" rx="12.5" ry="12.5" style="stroke:#181818;stroke-width:1.5;" width="90" x="205" y="724.125"/><text fill="#000000" font-family="sans-serif" font-size="14" lengthAdjust="spacing" textLength="70" x="215" y="747.1201">デメリット</text><rect fill="#F1F1F1" height="36.2969" rx="12.5" ry="12.5" style="stroke:#181818;stroke-width:1.5;" width="333" x="345" y="667.8281"/><text fill="#000000" font-family="sans-serif" font-size="14" lengthAdjust="spacing" textLength="313" x="355" y="690.8232">可読性/保守性が低くなりやすい（CIでカバーか）</text><path d="M295,742.2734 L305,742.2734 C320,742.2734 320,685.9766 335,685.9766 L345,685.9766 " fill="none" style="stroke:#181818;stroke-width:1.0;"/><rect fill="#F1F1F1" height="36.2969" rx="12.5" ry="12.5" style="stroke:#181818;stroke-width:1.5;" width="268" x="345" y="724.125"/><text fill="#000000" font-family="sans-serif" font-size="14" lengthAdjust="spacing" textLength="248" x="355" y="747.1201">動作が遅いこと。（Fastapiでカバー）</text><path d="M295,742.2734 L305,742.2734 C320,742.2734 320,742.2734 335,742.2734 L345,742.2734 " fill="none" style="stroke:#181818;stroke-width:1.0;"/><rect fill="#F1F1F1" height="36.2969" rx="12.5" ry="12.5" style="stroke:#181818;stroke-width:1.5;" width="356" x="345" y="780.4219"/><text fill="#000000" font-family="sans-serif" font-size="14" lengthAdjust="spacing" textLength="336" x="355" y="803.417">静的型付けなので、大規模なアプリ開発には向かない</text><path d="M295,742.2734 L305,742.2734 C320,742.2734 320,798.5703 335,798.5703 L345,798.5703 " fill="none" style="stroke:#181818;stroke-width:1.0;"/><path d="M155,657.8281 L165,657.8281 C180,657.8281 180,742.2734 195,742.2734 L205,742.2734 " fill="none" style="stroke:#181818;stroke-width:1.0;"/><rect fill="#F1F1F1" height="36.2969" rx="12.5" ry="12.5" style="stroke:#181818;stroke-width:1.5;" width="122" x="10" y="836.7188"/><text fill="#000000" font-family="sans-serif" font-size="14" lengthAdjust="spacing" textLength="102" x="20" y="859.7139">PHP 静的型付け</text><rect fill="#F1F1F1" height="36.2969" rx="12.5" ry="12.5" style="stroke:#181818;stroke-width:1.5;" width="118" x="182" y="836.7188"/><text fill="#000000" font-family="sans-serif" font-size="14" lengthAdjust="spacing" textLength="98" x="192" y="859.7139">学習コスト低い</text><path d="M132,854.8672 L142,854.8672 C157,854.8672 157,854.8672 172,854.8672 L182,854.8672 " fill="none" style="stroke:#181818;stroke-width:1.0;"/><rect fill="#F1F1F1" height="36.2969" rx="12.5" ry="12.5" style="stroke:#181818;stroke-width:1.5;" width="142" x="10" y="921.1641"/><text fill="#000000" font-family="sans-serif" font-size="14" lengthAdjust="spacing" textLength="122" x="20" y="944.1592">C,C## 動的型付け</text><rect fill="#F1F1F1" height="36.2969" rx="12.5" ry="12.5" style="stroke:#181818;stroke-width:1.5;" width="118" x="202" y="921.1641"/><text fill="#000000" font-family="sans-serif" font-size="14" lengthAdjust="spacing" textLength="98" x="212" y="944.1592">学習コスト低い</text><rect fill="#F1F1F1" height="36.2969" rx="12.5" ry="12.5" style="stroke:#181818;stroke-width:1.5;" width="159" x="370" y="893.0156"/><text fill="#000000" font-family="sans-serif" font-size="14" lengthAdjust="spacing" text-decoration="line-through" textLength="67" x="380" y="916.0107">Raspmbc</text><text fill="#000000" font-family="sans-serif" font-size="14" lengthAdjust="spacing" textLength="68" x="451" y="916.0107">=&gt; OSMC</text><path d="M320,939.3125 L330,939.3125 C345,939.3125 345,911.1641 360,911.1641 L370,911.1641 " fill="none" style="stroke:#181818;stroke-width:1.0;"/><rect fill="#F1F1F1" height="36.2969" rx="12.5" ry="12.5" style="stroke:#181818;stroke-width:1.5;" width="161" x="370" y="949.3125"/><text fill="#000000" font-family="sans-serif" font-size="14" lengthAdjust="spacing" text-decoration="line-through" textLength="53" x="380" y="972.3076">Raspyfi</text><text fill="#000000" font-family="sans-serif" font-size="14" lengthAdjust="spacing" textLength="84" x="437" y="972.3076">=&gt; Volumio</text><path d="M320,939.3125 L330,939.3125 C345,939.3125 345,967.4609 360,967.4609 L370,967.4609 " fill="none" style="stroke:#181818;stroke-width:1.0;"/><path d="M152,939.3125 L162,939.3125 C177,939.3125 177,939.3125 192,939.3125 L202,939.3125 " fill="none" style="stroke:#181818;stroke-width:1.0;"/><!--MD5=[d183099afe251c7b160f98695ef361e0]
@startmindmap
title 結論、Python Fast apiがよき

header
Fast api
🔃 コードを書くとSwagger UIが自動生成される
✅ 型安全
💨 高速
endheader

* TyepScript 動的型付け
** シングルスレッドの性質

** ユースケース
*** バグのない、セキュアでメンテナンスが容易なWebベースのソリューションのためにJavaScriptでのフルスタック開発が必要となる場合
*** Webベースのソリューションの開発コストを大幅に削減したい
*** 多数のユーザーからのリクエストに対応するプログラムを作成しようとしている場合

* GO 動的型付け
** クリーンアーキテクチャとの相性良い（フレームワークに依存しない）
** フレームワークに依存しないクリーンアーキテクチャ
** 軽量で保守しやすく（コーディングの差が起きにくい）高速なアプリケーション

* Python 静的型付け

** メリット
*** 汎用のプログラム言語、柔軟で、豊富なライブラリーがあるため、幅広い分野で使える
*** aiに活用できる（CIでカバーか）
*** モチベーションアップ

** デメリット
*** 可読性/保守性が低くなりやすい（CIでカバーか）
*** 動作が遅いこと。（Fastapiでカバー）
*** 静的型付けなので、大規模なアプリ開発には向かない

' 失敗に学ぶ技術選定－Pythonでの中規模開発がクラッシュした話
' https://www.notion.so/Python-docs-09c7edd3430a46d0866215e639e653ed

* PHP 静的型付け
** 学習コスト低い

* C,C## 動的型付け
** 学習コスト低い

*** <s>Raspmbc</s> => OSMC
*** <s>Raspyfi</s> => Volumio
@endmindmap

@startmindmap
title 結論、Python Fast apiがよき

header
Fast api
🔃 コードを書くとSwagger UIが自動生成される
✅ 型安全
💨 高速
endheader

* TyepScript 動的型付け
** シングルスレッドの性質

** ユースケース
*** バグのない、セキュアでメンテナンスが容易なWebベースのソリューションのためにJavaScriptでのフルスタック開発が必要となる場合
*** Webベースのソリューションの開発コストを大幅に削減したい
*** 多数のユーザーからのリクエストに対応するプログラムを作成しようとしている場合

* GO 動的型付け
** クリーンアーキテクチャとの相性良い（フレームワークに依存しない）
** フレームワークに依存しないクリーンアーキテクチャ
** 軽量で保守しやすく（コーディングの差が起きにくい）高速なアプリケーション

* Python 静的型付け

** メリット
*** 汎用のプログラム言語、柔軟で、豊富なライブラリーがあるため、幅広い分野で使える
*** aiに活用できる（CIでカバーか）
*** モチベーションアップ

** デメリット
*** 可読性/保守性が低くなりやすい（CIでカバーか）
*** 動作が遅いこと。（Fastapiでカバー）
*** 静的型付けなので、大規模なアプリ開発には向かない


* PHP 静的型付け
** 学習コスト低い

* C,C## 動的型付け
** 学習コスト低い

*** <s>Raspmbc</s> => OSMC
*** <s>Raspyfi</s> => Volumio
@endmindmap

PlantUML version 1.2022.8beta2(Unknown compile time)
(GPL source distribution)
Java Runtime: Java(TM) SE Runtime Environment
JVM: Java HotSpot(TM) 64-Bit Server VM
Default Encoding: UTF-8
Language: en
Country: US
--></g></svg>