<?xml version="1.0" encoding="UTF-8" standalone="no"?><svg xmlns="http://www.w3.org/2000/svg" xmlns:xlink="http://www.w3.org/1999/xlink" contentStyleType="text/css" height="489px" preserveAspectRatio="none" style="width:601px;height:489px;background:#FFFFFF;" version="1.1" viewBox="0 0 601 489" width="601px" zoomAndPan="magnify"><defs/><g><rect fill="none" height="34.9219" style="stroke:none;stroke-width:1.0;" width="269" x="319" y="10"/><text fill="#888888" font-family="sans-serif" font-size="10" lengthAdjust="spacing" textLength="269" x="319" y="19.2822">　チェックリスト（MECEの最後）に対して直感を働かせる</text><text fill="#888888" font-family="sans-serif" font-size="10" lengthAdjust="spacing" textLength="230" x="358" y="30.9229">バカの壁が入らない（考えていない部分をなくす）</text><text fill="#888888" font-family="sans-serif" font-size="10" lengthAdjust="spacing" textLength="250" x="338" y="42.5635">頭の中にアイデアはあるがうまく引き出せないをなくす</text><rect fill="none" height="26.2969" id="_title" style="stroke:none;stroke-width:1.0;" width="289" x="154.5" y="50.9219"/><text fill="#000000" font-family="sans-serif" font-size="14" font-weight="bold" lengthAdjust="spacing" textLength="279" x="159.5" y="68.917">→筋道としての論理　↓言葉としての論理</text><rect fill="#F1F1F1" height="36.2969" rx="12.5" ry="12.5" style="stroke:#181818;stroke-width:1.5;" width="71" x="10" y="262.1094"/><text fill="#000000" font-family="sans-serif" font-size="14" lengthAdjust="spacing" textLength="51" x="20" y="285.1045">Debian</text><rect fill="#F1F1F1" height="36.2969" rx="12.5" ry="12.5" style="stroke:#181818;stroke-width:1.5;" width="132" x="131" y="177.6641"/><text fill="#000000" font-family="sans-serif" font-size="14" lengthAdjust="spacing" textLength="112" x="141" y="200.6592">リファクタリング</text><rect fill="#F1F1F1" height="36.2969" rx="12.5" ry="12.5" style="stroke:#181818;stroke-width:1.5;" width="90" x="313" y="93.2188"/><text fill="#000000" font-family="sans-serif" font-size="14" lengthAdjust="spacing" textLength="70" x="323" y="116.2139">関心の分離</text><path d="M263,195.8125 L273,195.8125 C288,195.8125 288,111.3672 303,111.3672 L313,111.3672 " fill="none" style="stroke:#181818;stroke-width:1.0;"/><rect fill="#F1F1F1" height="36.2969" rx="12.5" ry="12.5" style="stroke:#181818;stroke-width:1.5;" width="80" x="313" y="149.5156"/><text fill="#000000" font-family="sans-serif" font-size="14" lengthAdjust="spacing" textLength="60" x="323" y="172.5107">Kubuntu</text><path d="M263,195.8125 L273,195.8125 C288,195.8125 288,167.6641 303,167.6641 L313,167.6641 " fill="none" style="stroke:#181818;stroke-width:1.0;"/><rect fill="#F1F1F1" height="36.2969" rx="12.5" ry="12.5" style="stroke:#181818;stroke-width:1.5;" width="78" x="313" y="205.8125"/><text fill="#000000" font-family="sans-serif" font-size="14" lengthAdjust="spacing" textLength="58" x="323" y="228.8076">Lubuntu</text><path d="M263,195.8125 L273,195.8125 C288,195.8125 288,223.9609 303,223.9609 L313,223.9609 " fill="none" style="stroke:#181818;stroke-width:1.0;"/><rect fill="#F1F1F1" height="36.2969" rx="12.5" ry="12.5" style="stroke:#181818;stroke-width:1.5;" width="91" x="313" y="262.1094"/><text fill="#000000" font-family="sans-serif" font-size="14" lengthAdjust="spacing" textLength="71" x="323" y="285.1045">KDE Neon</text><path d="M263,195.8125 L273,195.8125 C288,195.8125 288,280.2578 303,280.2578 L313,280.2578 " fill="none" style="stroke:#181818;stroke-width:1.0;"/><path d="M81,280.2578 L91,280.2578 C106,280.2578 106,195.8125 121,195.8125 L131,195.8125 " fill="none" style="stroke:#181818;stroke-width:1.0;"/><rect fill="#F1F1F1" height="36.2969" rx="12.5" ry="12.5" style="stroke:#181818;stroke-width:1.5;" width="60" x="131" y="233.9609"/><text fill="#000000" font-family="sans-serif" font-size="14" lengthAdjust="spacing" textLength="40" x="141" y="256.9561">LMDE</text><path d="M81,280.2578 L91,280.2578 C106,280.2578 106,252.1094 121,252.1094 L131,252.1094 " fill="none" style="stroke:#181818;stroke-width:1.0;"/><rect fill="#F1F1F1" height="36.2969" rx="12.5" ry="12.5" style="stroke:#181818;stroke-width:1.5;" width="79" x="131" y="290.2578"/><text fill="#000000" font-family="sans-serif" font-size="14" lengthAdjust="spacing" textLength="59" x="141" y="313.2529">SolydXK</text><path d="M81,280.2578 L91,280.2578 C106,280.2578 106,308.4063 121,308.4063 L131,308.4063 " fill="none" style="stroke:#181818;stroke-width:1.0;"/><rect fill="#F1F1F1" height="36.2969" rx="12.5" ry="12.5" style="stroke:#181818;stroke-width:1.5;" width="87" x="131" y="346.5547"/><text fill="#000000" font-family="sans-serif" font-size="14" lengthAdjust="spacing" textLength="67" x="141" y="369.5498">SteamOS</text><path d="M81,280.2578 L91,280.2578 C106,280.2578 106,364.7031 121,364.7031 L131,364.7031 " fill="none" style="stroke:#181818;stroke-width:1.0;"/><rect fill="#F1F1F1" height="36.2969" rx="12.5" ry="12.5" style="stroke:#181818;stroke-width:1.5;" width="247" x="131" y="402.8516"/><text fill="#000000" font-family="sans-serif" font-size="14" lengthAdjust="spacing" textLength="227" x="141" y="425.8467">Raspbian with a very long name</text><rect fill="#F1F1F1" height="36.2969" rx="12.5" ry="12.5" style="stroke:#181818;stroke-width:1.5;" width="159" x="428" y="374.7031"/><text fill="#000000" font-family="sans-serif" font-size="14" lengthAdjust="spacing" text-decoration="line-through" textLength="67" x="438" y="397.6982">Raspmbc</text><text fill="#000000" font-family="sans-serif" font-size="14" lengthAdjust="spacing" textLength="68" x="509" y="397.6982">=&gt; OSMC</text><path d="M378,421 L388,421 C403,421 403,392.8516 418,392.8516 L428,392.8516 " fill="none" style="stroke:#181818;stroke-width:1.0;"/><rect fill="#F1F1F1" height="36.2969" rx="12.5" ry="12.5" style="stroke:#181818;stroke-width:1.5;" width="161" x="428" y="431"/><text fill="#000000" font-family="sans-serif" font-size="14" lengthAdjust="spacing" text-decoration="line-through" textLength="53" x="438" y="453.9951">Raspyfi</text><text fill="#000000" font-family="sans-serif" font-size="14" lengthAdjust="spacing" textLength="84" x="495" y="453.9951">=&gt; Volumio</text><path d="M378,421 L388,421 C403,421 403,449.1484 418,449.1484 L428,449.1484 " fill="none" style="stroke:#181818;stroke-width:1.0;"/><path d="M81,280.2578 L91,280.2578 C106,280.2578 106,421 121,421 L131,421 " fill="none" style="stroke:#181818;stroke-width:1.0;"/><!--MD5=[7e5de783e535cac09be90e415f30c2bf]
@startmindmap
title →筋道としての論理　↓言葉としての論理

header
　チェックリスト（MECEの最後）に対して直感を働かせる
  バカの壁が入らない（考えていない部分をなくす）
  頭の中にアイデアはあるがうまく引き出せないをなくす
endheader

* Debian
** リファクタリング
*** 関心の分離
*** Kubuntu
*** Lubuntu
*** KDE Neon
** LMDE
** SolydXK
** SteamOS
** Raspbian with a very long name
*** <s>Raspmbc</s> => OSMC
*** <s>Raspyfi</s> => Volumio
@endmindmap

PlantUML version 1.2022.8beta2(Unknown compile time)
(GPL source distribution)
Java Runtime: Java(TM) SE Runtime Environment
JVM: Java HotSpot(TM) 64-Bit Server VM
Default Encoding: UTF-8
Language: en
Country: US
--></g></svg>